<?xml version="1.0" encoding="UTF-8" standalone="no"?>
<!DOCTYPE svg PUBLIC "-//W3C//DTD SVG 1.1//EN"
 "http://www.w3.org/Graphics/SVG/1.1/DTD/svg11.dtd">
<!-- Generated by graphviz version 6.0.1 (20220911.1526)
 -->
<!-- Pages: 1 -->
<svg width="188pt" height="67pt"
 viewBox="0.00 0.00 188.00 67.00" xmlns="http://www.w3.org/2000/svg" xmlns:xlink="http://www.w3.org/1999/xlink">
<g id="graph0" class="graph" transform="scale(1 1) rotate(0) translate(4 63)">
<polygon fill="white" stroke="none" points="-4,4 -4,-63 184,-63 184,4 -4,4"/>
<!-- A -->
<g id="node1" class="node">
<title>A</title>
<ellipse fill="none" stroke="black" cx="18" cy="-18" rx="18" ry="18"/>
<text text-anchor="middle" x="18" y="-14.3" font-family="Times New Roman,serif" font-size="14.00">A</text>
</g>
<!-- B -->
<g id="node2" class="node">
<title>B</title>
<ellipse fill="none" stroke="black" cx="90" cy="-41" rx="18" ry="18"/>
<text text-anchor="middle" x="90" y="-37.3" font-family="Times New Roman,serif" font-size="14.00">B</text>
</g>
<!-- A&#45;&gt;B -->
<g id="edge1" class="edge">
<title>A&#45;&gt;B</title>
<path fill="none" stroke="black" d="M35.24,-23.33C43.42,-26.02 53.55,-29.35 62.8,-32.39"/>
<polygon fill="black" stroke="black" points="61.77,-35.74 72.37,-35.53 63.96,-29.09 61.77,-35.74"/>
</g>
<!-- C -->
<g id="node3" class="node">
<title>C</title>
<ellipse fill="none" stroke="black" cx="162" cy="-18" rx="18" ry="18"/>
<text text-anchor="middle" x="162" y="-14.3" font-family="Times New Roman,serif" font-size="14.00">C</text>
</g>
<!-- A&#45;&gt;C -->
<g id="edge2" class="edge">
<title>A&#45;&gt;C</title>
<path fill="none" stroke="black" d="M36.17,-16.38C46.53,-15.48 60.01,-14.45 72,-14 87.99,-13.4 92.01,-13.4 108,-14 116.33,-14.31 125.39,-14.91 133.62,-15.54"/>
<polygon fill="black" stroke="black" points="133.58,-19.05 143.83,-16.38 134.15,-12.07 133.58,-19.05"/>
</g>
<!-- B&#45;&gt;C -->
<g id="edge3" class="edge">
<title>B&#45;&gt;C</title>
<path fill="none" stroke="black" d="M107.24,-35.67C115.42,-32.98 125.55,-29.65 134.8,-26.61"/>
<polygon fill="black" stroke="black" points="135.96,-29.91 144.37,-23.47 133.77,-23.26 135.96,-29.91"/>
</g>
</g>
</svg>
